PathFileType	4	(X/Y/Z)	/Users/niels/Desktop/University/Third Semester/Perception and Action/Exam/Gymnastics Motion Tracking/Code for Gym Tracking/Analyzed Data/Webcam_Backflip/id6_5_baseline_Sports2D/id6_5_baseline_Sports2D_px_person00.trc
DataRate	CameraRate	NumFrames	NumMarkers	Units	OrigDataRate	OrigDataStartFrame	OrigNumFrames
29.8125	29.8125	10	22	m	29.8125	120	160
Frame#	Time	Hip			RHip			RKnee			RAnkle			RBigToe			RSmallToe			RHeel			LHip			LKnee			LAnkle			LBigToe			LSmallToe			LHeel			Neck			Head			Nose			RShoulder			RElbow			RWrist			LShoulder			LElbow			LWrist		
		X1	Y1	Z1	X2	Y2	Z2	X3	Y3	Z3	X4	Y4	Z4	X5	Y5	Z5	X6	Y6	Z6	X7	Y7	Z7	X8	Y8	Z8	X9	Y9	Z9	X10	Y10	Z10	X11	Y11	Z11	X12	Y12	Z12	X13	Y13	Z13	X14	Y14	Z14	X15	Y15	Z15	X16	Y16	Z16	X17	Y17	Z17	X18	Y18	Z18	X19	Y19	Z19	X20	Y20	Z20	X21	Y21	Z21	X22	Y22	Z22
120	4.025157232704402	0.9237783554730513	-0.4453150000032997	0.0	0.9262250988120074	-0.4477055355142903	0.0	0.9460344890267546	-0.5521278026509862	0.0	0.9431937876283579	-0.6559522692951779	0.0	0.9590012294716564	-0.6920729077990604	0.0	0.9574178362831182	-0.6951700361367705	0.0	0.9380898417209818	-0.67183010705929	0.0	0.9161230024181826	-0.444879994391789	0.0	0.92986366474021	-0.5499026233659308	0.0	0.9086580370708018	-0.6428449172880405	0.0	0.9345711850724121	-0.6847926483900185	0.0	0.9252101160386627	-0.6815916860348686	0.0	0.9018050709757537	-0.6562479072754613	0.0	0.9636688235670925	-0.3255170297001862	0.0	1.0152958926130504	-0.2769434195465685	0.0	1.000788905515217	-0.31235327861858775	0.0	0.9563221580307127	-0.3326083428172132	0.0	0.9392880852815352	-0.3904663148008992	0.0	0.9912407852182531	-0.4303803363117532	0.0	0.9540334446471936	-0.3325955244362467	0.0	0.940999981634195	-0.3965910384817115	0.0	0.9751830280672228	-0.44412438707563245	0.0
121	4.058700209643606	0.9261239540500389	-0.44597678321567885	0.0	0.9291319426598585	-0.44802135071858834	0.0	0.9489889748574897	-0.5521633260972117	0.0	0.9475285172855992	-0.6557275013601161	0.0	0.9646404948496544	-0.6922419191915383	0.0	0.9623314019057441	-0.6951976304004519	0.0	0.9422360406507708	-0.6717833500977406	0.0	0.9196037542497741	-0.44540776776320645	0.0	0.9338219411383294	-0.549870680820634	0.0	0.9161286158498217	-0.6430110379333965	0.0	0.943255981320849	-0.6840845725127913	0.0	0.9338865385117792	-0.6806489890767143	0.0	0.909153227326094	-0.6572088787927881	0.0	0.9671119214165089	-0.32624298502602034	0.0	1.0178900601627399	-0.27487905568958065	0.0	1.0045359906591271	-0.31095727560201464	0.0	0.9594695902580048	-0.33330352319229645	0.0	0.9445766682337733	-0.3928585320333546	0.0	0.9948175780962076	-0.43462693983741385	0.0	0.9573829200812393	-0.33368568359122847	0.0	0.9451992111556689	-0.39765731604007326	0.0	0.9789146954492771	-0.4455687675246866	0.0
122	4.092243186582809	0.9283276835180734	-0.4504301052898756	0.0	0.9318763263123719	-0.45220912283570286	0.0	0.951723611737808	-0.55567807056056	0.0	0.951568349139959	-0.658621969933102	0.0	0.9708986986375974	-0.6956870407418638	0.0	0.9673112990167853	-0.6983662870125324	0.0	0.9459516022521016	-0.6749334978064423	0.0	0.9230305918037309	-0.4496154660180647	0.0	0.9381097781364797	-0.5534397220470822	0.0	0.9247641636725816	-0.6469140201736994	0.0	0.9537325495958516	-0.6859458154588396	0.0	0.9444771855031591	-0.6822529915704634	0.0	0.9173068591428968	-0.662044420264293	0.0	0.9707503340244148	-0.3306117108116251	0.0	1.0202267287730078	-0.27660914696982175	0.0	1.008169645979937	-0.3131165471889988	0.0	0.9629154947105487	-0.3379964913417855	0.0	0.9503880168164669	-0.39946092018524426	0.0	0.997868505412567	-0.4442284507379271	0.0	0.9608783417565123	-0.33852047476906943	0.0	0.9499476648112645	-0.4026553008366268	0.0	0.9822064744748203	-0.4519585481834539	0.0
123	4.125786163522012	0.930684257427621	-0.45873317798635016	0.0	0.9345760447612881	-0.4603743832413428	0.0	0.9541583159444277	-0.5629529802431694	0.0	0.9552096936935592	-0.6651282672214267	0.0	0.9771592847795497	-0.702436538184379	0.0	0.9719655305992213	-0.7048211561408408	0.0	0.9492078160022713	-0.681742013710137	0.0	0.9265341928651448	-0.4576453568919098	0.0	0.9425879186134908	-0.560894048712167	0.0	0.9340399206658175	-0.6549021787605117	0.0	0.964811459099269	-0.6911737237317253	0.0	0.9559451835070658	-0.6872027756504302	0.0	0.9258326297551959	-0.6709493067851439	0.0	0.9745245511880979	-0.33847888559529155	0.0	1.022255137326614	-0.2823629940270411	0.0	1.0116441439185877	-0.31902588702632007	0.0	0.9666349743719674	-0.3466549927105825	0.0	0.9563339877218432	-0.4101593800432111	0.0	1.0000735335606454	-0.4587135843280593	0.0	0.9644276594645367	-0.347012187116253	0.0	0.9550997552859447	-0.4115663303223529	0.0	0.9850056286688109	-0.46313607318733285	0.0
124	4.159329140461216	0.9334450182202776	-0.4710231027596891	0.0	0.9373790580370959	-0.47265213652473026	0.0	0.9563328240215646	-0.5743950705082065	0.0	0.9583601411094833	-0.6758862606135988	0.0	0.9825042661650134	-0.7126134910647524	0.0	0.975660803441427	-0.7148330972381693	0.0	0.9520427920462214	-0.6928566580725819	0.0	0.9302022697205512	-0.469783221235304	0.0	0.9471465372888098	-0.5726224239937961	0.0	0.9431343584396724	-0.6673376424624686	0.0	0.9751433497080949	-0.7007462967094946	0.0	0.9669656479929467	-0.6964824688122029	0.0	0.9341061769822556	-0.6841587030885687	0.0	0.9783766331408884	-0.3498100179121328	0.0	1.0239142841634725	-0.2921910359964176	0.0	1.014909731966558	-0.32874202227444094	0.0	0.9704495122320353	-0.3592300552035003	0.0	0.9619883642390822	-0.42482193016057573	0.0	1.0013003483908605	-0.4773830149994225	0.0	0.9678882529237794	-0.3591531046595981	0.0	0.9601837158653457	-0.4243889328720799	0.0	0.9873559213727746	-0.4782959198231627	0.0
125	4.192872117400419	0.936787906748783	-0.48738870475183843	0.0	0.9404617423881613	-0.48908782599304224	0.0	0.958394207774804	-0.590259340454191	0.0	0.9608689094342254	-0.6912771722551436	0.0	0.9861044221549973	-0.7263818740873352	0.0	0.9778180901683499	-0.7286383408362903	0.0	0.9544367903684358	-0.708665749672575	0.0	0.9341032067256894	-0.4862538751309957	0.0	0.9516839583690425	-0.5888418213392765	0.0	0.9511223908201153	-0.6843572334606673	0.0	0.9835857884539432	-0.7151889401604391	0.0	0.9763364820625403	-0.7106609973375093	0.0	0.9413801885067098	-0.7016844541227008	0.0	0.982165891462795	-0.36458649460058284	0.0	1.0250421490593402	-0.30593989479577627	0.0	1.0178255730073429	-0.34210810504394357	0.0	0.9740280095854268	-0.3756156351959683	0.0	0.9669532044037225	-0.44319896849095963	0.0	1.0015580458710633	-0.4994183088500352	0.0	0.9710796473706309	-0.3749044033367354	0.0	0.96451423982923	-0.4409243191852408	0.0	0.9892315721809269	-0.4955756732582314	0.0
126	4.226415094339622	0.940755307230484	-0.5076593191106918	0.0	0.9439368665624452	-0.509429892128756	0.0	0.9605087962891956	-0.6103350880276465	0.0	0.9624837037797934	-0.7109705841664778	0.0	0.9875365607910861	-0.7435271043839656	0.0	0.9782030428865807	-0.7459746266312047	0.0	0.9561777627376856	-0.7287094692500924	0.0	0.9383198043201941	-0.506914813655618	0.0	0.9560695326516194	-0.6092875953911261	0.0	0.9572162744928991	-0.7055292360208943	0.0	0.9893877392225612	-0.7340085441638196	0.0	0.9832055807215716	-0.7293165787481105	0.0	0.9469424470262444	-0.72290237898653	0.0	0.9856166440799676	-0.38268108380918603	0.0	1.025417216912985	-0.3233318201106434	0.0	1.0201711485265912	-0.35881339826481956	0.0	0.9770138388142563	-0.39552433976729257	0.0	0.9709538283425553	-0.4648280175966787	0.0	1.0009232408436848	-0.5240000487139703	0.0	0.9738352973838061	-0.3940143292766462	0.0	0.9675283327762548	-0.4606157175758792	0.0	0.9905296330144383	-0.5120703182963333	0.0
127	4.259958071278826	0.9452362216732899	-0.5311752028154635	0.0	0.947758306516729	-0.5329096302000802	0.0	0.9627756350876123	-0.6337429967076486	0.0	0.9630099612207861	-0.7337694161160206	0.0	0.9868995002194019	-0.7630691897835505	0.0	0.9770615102419558	-0.7657385069843178	0.0	0.9569961866374325	-0.7515092508525336	0.0	0.9429299723405179	-0.5309756803028413	0.0	0.9601572476094099	-0.6330196315969934	0.0	0.96102242734821	-0.7296397512051163	0.0	0.9923256338207181	-0.755646742384432	0.0	0.9871752068195732	-0.7509389019814297	0.0	0.9504051988063803	-0.7464254641927796	0.0	0.9883624979665525	-0.4036657005672177	0.0	1.0248790219960948	-0.34382191585743055	0.0	1.021750798971291	-0.37834467470098654	0.0	0.9791857413315813	-0.41830549977539655	0.0	0.9739181538937244	-0.4889761131596877	0.0	0.999552955457475	-0.5503353692532443	0.0	0.9760411756595111	-0.4158328856309057	0.0	0.9691006797043007	-0.4825186371837519	0.0	0.9912470701769153	-0.5244535597944473	0.0
128	4.293501048218029	0.950014095839756	-0.5566264242649018	0.0	0.9517259745903024	-0.5581451347179063	0.0	0.9651868362191117	-0.6588715931573111	0.0	0.9625306985968223	-0.7578103146038585	0.0	0.9847832455625705	-0.7833860353934937	0.0	0.9750525875127792	-0.786185923514702	0.0	0.956857591913628	-0.7749791626954929	0.0	0.9479581733800697	-0.5569097851881575	0.0	0.9638479828346465	-0.6583792553768322	0.0	0.9626956432472793	-0.7547895226112096	0.0	0.9927272561630712	-0.7779762067875373	0.0	0.9883888284084592	-0.7733786129312367	0.0	0.951922056646211	-0.7703894348488115	0.0	0.9901030210372675	-0.42655278626891185	0.0	1.0233795344362084	-0.36624987212014515	0.0	1.0225165026440566	-0.399720276883188	0.0	0.980526348197572	-0.44279306667005597	0.0	0.9759745722432747	-0.5145266132156847	0.0	0.9976749467485889	-0.5774506960774377	0.0	0.9776663760253518	-0.43921680562431853	0.0	0.9695356779337697	-0.505215845477022	0.0	0.9914388926401544	-0.5302134713304153	0.0
129	4.327044025157232	0.9548099975830934	-0.5820426152412392	0.0	0.9555901861302137	-0.5832167759312386	0.0	0.9675902699347395	-0.6835477395827306	0.0	0.9613892111257104	-0.7809838260277805	0.0	0.9820518965104871	-0.8027666005821147	0.0	0.9729442170742106	-0.8055328107917263	0.0	0.9560244650214982	-0.7970149772766781	0.0	0.9532796300808651	-0.5826128091943747	0.0	0.9671033570884233	-0.6832020882972571	0.0	0.962798051742848	-0.7787963724551012	0.0	0.9912731625132482	-0.7989537377766529	0.0	0.9874703278384311	-0.7945025632101506	0.0	0.9520639709666257	-0.7928551545082544	0.0	0.9907604243606496	-0.4496812394341858	0.0	1.020913601862275	-0.3887508213048508	0.0	1.0225865778096086	-0.42128200788968484	0.0	0.9811734478353725	-0.4672924879151117	0.0	0.9773580629403417	-0.5398116245347296	0.0	0.9954903354439868	-0.6038097583645782	0.0	0.9787778022799383	-0.46257542015468367	0.0	0.9692744301756315	-0.5267019067962136	0.0	0.9909961480748363	-0.5297776808263107	0.0
